<?xml version="1.0" standalone="no"?>
<!DOCTYPE svg PUBLIC "-//W3C//DTD SVG 20010904//EN"
 "http://www.w3.org/TR/2001/REC-SVG-20010904/DTD/svg10.dtd">
<svg version="1.0" xmlns="http://www.w3.org/2000/svg"
 width="512.000000pt" height="512.000000pt" viewBox="0 0 512.000000 512.000000"
 preserveAspectRatio="xMidYMid meet">

<g transform="translate(0.000000,512.000000) scale(0.100000,-0.100000)">

<path d="M1320 3509 c-647 -83 -1153 -553 -1291 -1199 -20 -90 -23 -135 -23
-310 0 -175 3 -220 23 -310 70 -326 221 -594 461 -816 197 -182 436 -304 720
-366 l105 -23 1245 0 1245 0 105 23 c611 134 1051 575 1181 1182 19 90 23 135
23 310 0 175 -4 221 -23 310 -129 605 -566 1043 -1176 1181 l-100 23 -1215 2
c-668 1 -1244 -2 -1280 -7z m475 -177 c408 -88 756 -356 942 -725 19 -38 52
-122 73 -186 94 -281 92 -582 -6 -863 -71 -203 -176 -371 -325 -519 -444 -442
-1126 -525 -1662 -202 -327 197 -558 530 -634 911 -24 121 -24 385 0 504 115
571 558 999 1132 1093 121 19 358 13 480 -13z m2085 4 c554 -129 941 -520
1057 -1066 25 -120 25 -420 0 -540 -124 -582 -579 -1008 -1157 -1079 -52 -7
-368 -11 -829 -11 l-745 0 96 59 c400 244 662 646 723 1109 19 143 19 241 0
384 -62 471 -324 869 -738 1119 l-82 50 800 -4 c720 -3 808 -5 875 -21z"/>
<path d="M1465 2855 c-24 -23 -25 -31 -25 -135 0 -104 1 -112 25 -135 15 -16
36 -25 55 -25 19 0 40 9 55 25 24 23 25 31 25 135 0 104 -1 112 -25 135 -15
16 -36 25 -55 25 -19 0 -40 -9 -55 -25z"/>
<path d="M935 2642 c-49 -10 -72 -57 -51 -105 17 -41 135 -154 169 -162 50
-13 105 42 93 92 -9 33 -129 159 -165 170 -14 5 -35 7 -46 5z"/>
<path d="M2053 2635 c-45 -20 -152 -135 -159 -172 -5 -27 -1 -37 24 -63 34
-33 50 -36 90 -16 38 20 152 141 153 163 5 78 -42 116 -108 88z"/>
<path d="M1426 2390 c-63 -16 -153 -70 -197 -117 -22 -24 -55 -74 -72 -111
-29 -61 -32 -76 -32 -163 0 -90 2 -99 37 -171 45 -91 103 -147 196 -191 61
-29 76 -32 162 -32 86 0 101 3 162 32 93 44 151 100 196 191 35 72 37 81 37
172 0 91 -2 100 -37 172 -68 136 -188 217 -336 224 -42 2 -94 -1 -116 -6z
m168 -162 c86 -26 166 -136 166 -228 0 -124 -116 -240 -240 -240 -124 0 -240
116 -240 240 0 63 23 114 75 165 70 71 145 90 239 63z"/>
<path d="M665 2055 c-16 -15 -25 -36 -25 -55 0 -19 9 -40 25 -55 23 -24 31
-25 135 -25 104 0 112 1 135 25 16 15 25 36 25 55 0 19 -9 40 -25 55 -23 24
-31 25 -135 25 -104 0 -112 -1 -135 -25z"/>
<path d="M2105 2055 c-16 -15 -25 -36 -25 -55 0 -19 9 -40 25 -55 23 -24 31
-25 135 -25 104 0 112 1 135 25 16 15 25 36 25 55 0 19 -9 40 -25 55 -23 24
-31 25 -135 25 -104 0 -112 -1 -135 -25z"/>
<path d="M1035 1620 c-30 -12 -155 -145 -156 -167 -5 -71 23 -99 94 -94 22 1
143 115 163 153 20 39 17 56 -15 89 -30 30 -50 34 -86 19z"/>
<path d="M1919 1601 c-16 -16 -29 -37 -29 -46 0 -29 27 -69 87 -127 73 -71 99
-82 144 -60 37 19 51 53 37 92 -11 30 -113 136 -150 156 -39 20 -56 18 -89
-15z"/>
<path d="M1465 1415 c-24 -23 -25 -31 -25 -135 0 -104 1 -112 25 -135 15 -16
36 -25 55 -25 19 0 40 9 55 25 24 23 25 31 25 135 0 104 -1 112 -25 135 -15
16 -36 25 -55 25 -19 0 -40 -9 -55 -25z"/>
<path d="M3596 2469 c-38 -30 -35 -76 8 -139 48 -70 59 -111 54 -194 -6 -89
-30 -138 -99 -200 -62 -56 -128 -78 -222 -74 -52 2 -70 -2 -86 -16 -50 -46
-31 -104 64 -195 239 -229 625 -162 771 134 139 281 -14 611 -321 690 -83 21
-137 19 -169 -6z m272 -224 c24 -22 54 -63 74 -102 82 -167 12 -362 -158 -440
-89 -40 -169 -41 -271 -2 -28 10 -27 11 45 44 97 45 171 120 220 222 36 76 37
81 37 196 0 64 3 117 6 117 3 0 24 -16 47 -35z"/>
</g>
</svg>
