<?xml version="1.0" standalone="no"?>
<!DOCTYPE svg PUBLIC "-//W3C//DTD SVG 20010904//EN"
 "http://www.w3.org/TR/2001/REC-SVG-20010904/DTD/svg10.dtd">
<svg version="1.0" xmlns="http://www.w3.org/2000/svg"
 width="256.000000pt" height="256.000000pt" viewBox="0 0 256.000000 256.000000"
 preserveAspectRatio="xMidYMid meet">

<g transform="translate(0.000000,256.000000) scale(0.100000,-0.100000)"
fill="#000000" stroke="none">
<path d="M1141 2393 c-16 -16 -39 -55 -51 -88 -13 -33 -26 -63 -29 -67 -4 -4
-22 -3 -42 3 -32 10 -42 8 -105 -23 -59 -29 -78 -34 -131 -32 -57 2 -63 1 -90
-30 -16 -17 -28 -36 -27 -41 1 -6 5 -23 8 -38 4 -17 17 -32 34 -40 43 -20 62
-44 63 -84 1 -21 5 -49 9 -63 7 -20 8 -17 8 20 0 79 -13 167 -22 148 -5 -10
-6 -25 -2 -33 3 -8 2 -15 -2 -15 -4 0 -12 15 -18 33 -13 42 0 91 28 112 34 23
42 18 19 -11 -12 -15 -21 -34 -21 -43 0 -9 7 -2 16 15 11 24 32 38 87 62 137
58 199 68 114 18 -49 -28 -90 -88 -106 -152 -5 -22 -16 -57 -24 -79 -9 -22
-14 -41 -13 -43 2 -1 39 3 84 9 68 9 95 8 159 -6 148 -31 133 -34 133 30 0 40
-4 57 -15 61 -24 10 -17 24 11 24 33 0 615 -159 628 -171 6 -5 -3 -11 -22 -15
-38 -8 -47 -18 -56 -66 -8 -42 -15 -37 137 -74 75 -19 119 -44 151 -87 18 -24
21 -46 24 -150 l4 -122 85 -93 86 -93 44 43 c36 35 43 47 37 68 -3 14 -6 54
-5 90 3 79 -15 72 -22 -8 -3 -29 -7 -56 -10 -59 -3 -3 -28 3 -56 12 -43 14
-51 20 -51 41 0 21 4 24 20 19 11 -3 29 -4 40 0 23 7 85 97 96 139 l7 28 62
-6 c62 -6 63 -6 90 26 18 21 23 34 15 36 -7 3 -16 -1 -19 -7 -4 -6 -15 -9 -24
-5 -9 3 -14 10 -11 15 3 5 0 9 -7 9 -10 0 -10 3 -2 11 8 8 20 9 42 1 26 -9 31
-8 31 4 0 29 -20 52 -49 59 -39 8 -44 28 -24 85 15 43 15 50 1 71 -19 30 -103
56 -124 38 -25 -21 -26 -3 -5 69 12 38 21 74 21 80 0 5 -27 19 -60 30 -70 24
-63 31 -104 -95 -15 -45 -32 -81 -38 -80 -7 1 -16 -15 -22 -35 -15 -50 -20
-53 -58 -35 -18 8 -53 21 -78 28 -57 16 -78 34 -30 25 32 -5 34 -5 16 9 -11 8
-26 15 -33 15 -17 0 -17 14 0 29 10 8 31 6 82 -8 80 -23 110 -16 118 26 3 15
4 30 2 31 -8 9 -199 53 -210 48 -18 -7 -36 -86 -24 -108 7 -14 6 -18 -5 -18
-8 0 -173 44 -368 99 -440 122 -403 114 -418 96 -9 -11 -17 -12 -32 -4 -11 6
-42 17 -68 25 -55 16 -80 38 -28 24 30 -9 31 -8 14 5 -11 8 -26 15 -33 15 -18
0 -16 19 2 26 8 3 38 0 67 -7 29 -7 64 -12 77 -11 18 2 22 -2 18 -17 -4 -16 5
-21 55 -34 66 -17 67 -16 71 47 l2 40 -82 20 c-94 23 -95 23 -63 110 30 78 37
82 115 62 72 -18 95 -20 95 -8 0 7 -129 43 -152 42 -4 0 -21 -12 -37 -27z
m-411 -278 c0 -27 -25 -44 -40 -29 -15 15 0 54 21 54 14 0 19 -7 19 -25z m342
-100 c-4 -24 -5 -24 -17 -8 -11 15 -11 19 3 25 9 4 18 7 18 7 1 1 -1 -10 -4
-24z m119 -49 c-5 -29 -5 -30 -9 -6 -2 14 -9 28 -15 32 -7 4 -3 6 9 6 17 -2
19 -7 15 -32z m1183 -127 c-16 -17 -51 -47 -77 -66 -68 -50 -77 -75 -84 -211
-5 -120 -9 -143 -20 -104 -3 12 -12 22 -19 22 -8 0 -14 6 -14 13 0 6 -5 54
-10 104 -7 65 -7 100 1 117 14 29 120 104 199 139 52 23 57 20 24 -14z m-542
-11 c-7 -7 -13 -26 -13 -42 -2 -28 -2 -28 -6 -6 -3 14 -9 30 -15 37 -6 8 -2
13 14 16 13 2 25 5 28 6 2 0 -1 -4 -8 -11z m70 -10 c-9 -9 -42 -1 -42 12 0 4
12 5 26 2 15 -3 22 -8 16 -14z m278 -3 c-7 -9 -15 -13 -17 -11 -7 7 7 26 19
26 6 0 6 -6 -2 -15z m-227 -35 c-4 -17 -8 -18 -20 -8 -13 10 -13 13 4 19 10 4
19 8 20 8 0 1 -1 -8 -4 -19z m125 -16 c4 -4 -4 -4 -18 0 -14 3 -37 9 -52 12
-16 4 -28 10 -28 15 0 9 88 -15 98 -27z m54 -16 c-9 -18 -18 -60 -20 -92 -4
-53 -6 -58 -18 -41 -16 22 -18 83 -4 120 8 21 21 31 57 44 1 1 -6 -14 -15 -31z
m226 -8 c13 0 22 -6 22 -15 0 -8 -5 -15 -10 -15 -16 0 -50 -63 -50 -93 0 -16
5 -38 11 -49 10 -19 9 -20 -17 -14 -50 13 -72 33 -79 75 -10 61 35 127 80 116
11 -3 30 -5 43 -5z m83 -84 c-12 -13 -25 -40 -28 -61 -5 -32 -8 -36 -18 -22
-6 9 -24 21 -39 27 -19 7 -26 15 -22 26 3 9 6 20 6 25 0 6 14 7 33 4 24 -5 37
-2 46 9 8 9 20 16 29 16 12 0 11 -5 -7 -24z"/>
<path d="M1970 2206 c0 -16 21 -26 56 -26 14 0 72 -12 130 -26 57 -15 108 -24
111 -20 10 9 7 10 -143 49 -162 42 -154 41 -154 23z"/>
<path d="M1282 1978 c-5 -7 -13 -32 -17 -55 -6 -40 -5 -42 22 -49 15 -3 36 -8
46 -11 15 -4 17 3 17 51 0 44 -4 57 -19 66 -26 13 -36 13 -49 -2z m39 -45 c-5
-33 -6 -35 -9 -10 -2 15 -9 27 -15 28 -7 0 -3 4 8 9 11 5 20 9 20 9 1 1 -1
-16 -4 -36z"/>
<path d="M1400 1930 c-6 -11 -10 -35 -8 -53 3 -27 8 -33 41 -40 21 -5 39 -8
41 -6 2 2 0 29 -3 59 -6 50 -8 55 -33 58 -19 2 -30 -3 -38 -18z m47 -17 c-9
-20 -13 -23 -15 -10 -2 9 -9 17 -15 18 -7 1 -1 5 13 9 14 4 26 8 27 9 2 1 -3
-11 -10 -26z"/>
<path d="M1532 1907 c-6 -7 -12 -30 -14 -51 -3 -32 1 -40 21 -47 22 -9 23 -8
19 36 -2 25 1 46 7 49 6 2 9 -15 7 -45 -3 -40 -1 -49 12 -49 12 0 16 11 16 48
0 26 -5 53 -12 60 -16 16 -43 15 -56 -1z"/>
<path d="M1663 1882 c-7 -5 -16 -29 -19 -54 -6 -44 -5 -45 22 -52 16 -4 37 -9
48 -12 17 -6 18 -2 11 47 -8 64 -32 90 -62 71z m36 -33 c-9 -17 -13 -19 -20
-8 -7 12 3 22 29 28 1 1 -2 -9 -9 -20z"/>
<path d="M451 1531 c-11 -7 -12 -17 -5 -43 12 -39 29 -46 339 -139 110 -33
261 -80 335 -104 173 -56 400 -125 408 -125 35 2 -112 50 -727 237 -157 47
-225 72 -228 84 -3 8 -17 21 -31 27 -78 33 82 -12 493 -139 247 -77 454 -139
460 -139 25 1 -36 23 -265 94 -443 139 -739 237 -745 247 -8 11 -16 11 -34 0z"/>
<path d="M1896 1415 c-153 -121 -169 -138 -38 -41 57 42 107 76 112 76 28 0
-33 -62 -141 -144 -68 -51 -133 -104 -144 -117 -11 -13 -13 -19 -5 -13 8 7 60
45 115 86 194 144 205 151 205 134 0 -8 -71 -70 -157 -137 -87 -67 -165 -129
-173 -137 -27 -28 35 14 167 114 69 51 130 94 135 94 21 0 -37 -62 -105 -111
-112 -83 -219 -171 -213 -176 3 -3 91 59 196 138 l190 144 0 77 c0 42 3 83 6
92 14 37 -37 10 -150 -79z"/>
<path d="M444 1407 c-8 -21 13 -64 38 -81 13 -8 124 -44 248 -81 124 -36 356
-106 516 -156 160 -49 295 -89 300 -89 43 1 -284 109 -616 205 -317 91 -360
105 -360 119 0 7 -10 18 -22 24 -52 27 63 -5 514 -144 257 -79 470 -144 474
-144 32 0 -43 28 -231 85 -121 36 -341 104 -490 150 -148 46 -282 87 -297 90
-15 4 -32 13 -39 21 -14 18 -28 18 -35 1z"/>
<path d="M1729 1283 c-13 -16 -12 -17 4 -4 9 7 17 15 17 17 0 8 -8 3 -21 -13z"/>
<path d="M1926 1065 c-110 -90 -209 -176 -220 -191 -17 -23 -21 -47 -24 -132
-3 -57 0 -108 4 -112 5 -5 8 34 8 89 -1 72 3 108 15 134 11 26 74 83 221 201
112 91 210 166 217 166 19 0 18 -172 -1 -209 -8 -15 -99 -101 -202 -192 -213
-187 -236 -208 -215 -194 51 33 414 361 426 386 12 22 15 54 13 122 -3 84 -5
92 -23 94 -13 1 -91 -56 -219 -162z"/>
<path d="M2323 1120 c-12 -18 -416 -389 -693 -635 -196 -174 -351 -315 -381
-347 -46 -47 -118 -62 -162 -34 -28 19 -911 341 -957 350 -19 3 -47 13 -63 20
-15 8 -27 11 -27 6 0 -11 40 -26 611 -234 482 -176 513 -184 576 -148 27 15
1048 936 1103 994 20 22 27 48 12 48 -4 0 -13 -9 -19 -20z"/>
<path d="M536 1097 c-44 -27 -69 -50 -252 -227 -105 -102 -192 -190 -193 -196
0 -6 24 -21 54 -32 l55 -21 55 34 c30 19 56 35 58 35 3 0 8 -19 11 -42 8 -47
29 -83 44 -74 14 8 73 -14 97 -36 11 -11 28 -17 38 -14 24 6 80 -13 90 -31 5
-7 12 -11 17 -8 4 3 11 -2 14 -11 5 -12 10 -13 19 -5 15 12 90 -6 81 -21 -5
-7 10 -11 21 -5 2 1 11 -7 19 -18 13 -17 17 -18 25 -6 8 12 14 12 39 2 17 -7
33 -19 36 -28 3 -8 11 -11 17 -8 5 4 17 -1 24 -11 9 -11 14 -14 15 -6 0 6 8
12 18 12 9 0 28 9 41 19 20 15 23 24 18 50 -6 27 -2 33 31 56 l37 25 3 -35 c2
-20 -1 -42 -6 -48 -5 -7 -8 -20 -7 -29 2 -10 -12 -31 -30 -47 -20 -18 -29 -31
-22 -34 7 -2 37 17 67 44 l55 49 6 -38 c3 -20 7 -30 8 -22 1 13 2 13 11 0 7
-11 10 -4 10 28 0 30 4 42 14 42 22 0 76 49 70 64 -6 15 40 41 55 32 6 -4 11
-22 11 -41 0 -27 -8 -40 -48 -74 -27 -22 -49 -47 -49 -55 0 -12 4 -13 13 -5 8
6 12 16 11 22 -1 6 7 13 18 15 11 2 41 22 66 43 26 22 51 39 57 39 10 0 91 91
129 146 85 124 79 112 61 137 -12 15 -973 348 -1001 346 -7 0 -21 -6 -31 -12z
m152 -48 c32 -12 27 -19 -13 -19 -25 0 -37 6 -46 21 -11 22 -6 22 59 -2z
m-118 -56 c-12 -16 -24 -27 -26 -25 -2 1 -13 11 -25 23 l-21 21 28 -6 c16 -3
36 -2 44 4 23 15 23 12 0 -17z m271 3 c29 -12 31 -16 16 -22 -21 -8 -67 10
-67 26 0 14 11 13 51 -4z m-96 -52 c-8 -6 -15 -16 -15 -23 0 -17 -17 -13 -43
12 l-24 22 49 0 c38 0 45 -2 33 -11z m280 -15 c5 -5 1 -9 -12 -9 -29 0 -53 10
-53 22 0 12 50 2 65 -13z m-567 -49 c-12 -16 -23 -30 -24 -30 -2 0 -15 11 -29
24 l-26 24 39 -5 c24 -3 42 -1 46 6 4 6 9 11 12 11 2 0 -5 -13 -18 -30z m450
1 c-24 -32 -48 -40 -48 -18 0 8 -10 19 -22 24 -19 9 -14 10 23 6 29 -3 49 -1
53 6 4 6 10 11 12 11 3 0 -5 -13 -18 -29z m-306 -58 c-18 -28 -16 -28 -46 0
l-24 22 43 0 c41 0 42 0 27 -22z m475 9 c-10 -10 -17 -24 -17 -30 0 -19 -17
-14 -43 12 l-24 24 37 -5 c22 -3 40 -1 44 6 4 6 10 11 13 11 3 0 -1 -8 -10
-18z m-708 -59 c-13 -16 -25 -29 -25 -31 -1 -2 -14 8 -29 22 l-28 26 30 -6
c17 -3 39 -1 50 5 28 16 28 13 2 -16z m277 3 c10 -21 8 -25 -18 -41 -34 -20
-40 -16 -40 21 0 45 40 59 58 20z m119 8 c-8 -6 -15 -16 -15 -23 0 -6 -7 -11
-15 -11 -8 0 -15 4 -15 10 0 5 -11 15 -24 22 -23 12 -21 13 30 13 42 0 51 -2
39 -11z m478 -13 c-13 -11 -23 -24 -23 -30 0 -18 -13 -12 -40 15 l-25 27 32
-7 c18 -4 40 -3 50 3 28 16 30 12 6 -8z m-825 -52 c-3 -28 -7 -32 -40 -35 -49
-4 -51 18 -5 46 43 27 49 25 45 -11z m372 11 c0 -11 5 -20 12 -20 6 0 3 -9 -7
-20 -10 -11 -26 -20 -36 -20 -14 0 -18 7 -16 33 1 17 7 35 12 39 19 14 35 8
35 -12z m125 4 c-8 -6 -15 -16 -15 -23 0 -6 -7 -11 -15 -11 -8 0 -15 4 -15 10
0 5 -11 15 -24 22 -23 12 -21 13 30 13 42 0 51 -2 39 -11z m-378 -12 c-10 -10
-17 -24 -17 -30 0 -16 -17 -15 -27 1 -4 8 -17 19 -28 26 -18 10 -16 11 12 6
18 -4 40 -2 50 4 26 15 28 13 10 -7z m730 2 c-3 -3 -12 -4 -19 -1 -8 3 -5 6 6
6 11 1 17 -2 13 -5z m129 -4 l24 10 -22 -30 c-24 -33 -38 -38 -38 -15 0 8 -4
15 -8 15 -5 0 -17 7 -28 15 -17 13 -16 14 14 5 20 -5 43 -5 58 0z m-812 -16
c-6 -3 -9 -15 -7 -27 3 -13 -2 -28 -9 -35 -17 -14 -58 -5 -58 13 0 14 58 55
75 54 6 0 5 -3 -1 -5z m362 -39 c9 -30 8 -37 -7 -51 -17 -15 -19 -15 -25 0 -3
9 -4 23 -1 31 4 8 2 17 -4 21 -6 4 -6 11 2 20 17 21 23 18 35 -21z m84 22 c8
0 24 3 35 7 18 7 18 6 4 -6 -8 -7 -18 -21 -22 -30 -8 -22 -27 -24 -27 -3 0 8
-4 15 -8 15 -5 0 -17 7 -28 16 -18 14 -18 15 6 8 14 -4 32 -7 40 -7z m-550
-18 c0 -13 -13 -11 -35 5 -18 13 -18 14 8 9 15 -3 27 -9 27 -14z m810 17 c0
-3 -4 -8 -10 -11 -5 -3 -10 -1 -10 4 0 6 5 11 10 11 6 0 10 -2 10 -4z m-581
-19 c-8 -7 -18 -20 -22 -29 -8 -21 -27 -24 -27 -5 0 8 -10 19 -22 25 -21 11
-21 12 7 7 17 -3 37 -1 45 5 22 14 38 12 19 -3z m751 3 c0 -5 -6 -10 -14 -10
-8 0 -18 5 -21 10 -3 6 3 10 14 10 12 0 21 -4 21 -10z m-713 -30 c-19 -27 -63
-61 -71 -53 -13 13 -5 24 29 40 19 9 35 20 35 25 0 4 5 8 11 8 6 0 5 -8 -4
-20z m459 0 l24 10 -22 -30 c-24 -33 -38 -38 -38 -15 0 8 -4 15 -8 15 -5 0
-17 7 -28 15 -17 13 -16 14 14 5 20 -5 43 -5 58 0z m-763 -36 c43 -14 76 -28
74 -30 -2 -2 -18 1 -36 7 -17 6 -38 9 -45 6 -23 -9 -86 12 -86 28 0 20 2 19
93 -11z m203 -1 c-8 -8 -36 5 -36 17 0 7 6 7 21 0 11 -7 18 -14 15 -17z m444
11 c0 -8 -4 -12 -10 -9 -5 3 -10 10 -10 16 0 5 5 9 10 9 6 0 10 -7 10 -16z
m-229 -21 c-20 -28 -24 -28 -54 0 l-25 22 48 0 c47 0 47 0 31 -22z m569 23 c0
-3 -4 -8 -10 -11 -5 -3 -10 -1 -10 4 0 6 5 11 10 11 6 0 10 -2 10 -4z m-312
-52 c-37 -28 -46 -30 -28 -9 10 12 9 15 -6 15 -15 0 -14 3 6 13 14 7 33 11 43
9 14 -4 12 -9 -15 -28z m102 21 c-7 -8 -18 -15 -24 -15 -6 0 -2 7 8 15 25 19
32 19 16 0z m138 -15 c-23 -32 -38 -38 -38 -17 0 8 -10 19 -22 25 -21 11 -20
12 9 6 18 -3 40 -1 50 5 26 15 26 14 1 -19z m-605 6 c4 -10 0 -12 -14 -9 -10
3 -16 9 -13 14 8 13 21 11 27 -5z m-14 -71 c106 -36 199 -65 207 -65 8 0 14
-9 14 -20 0 -20 -26 -28 -32 -10 -2 6 -88 42 -192 80 -167 61 -212 80 -194 80
3 0 91 -29 197 -65z m61 55 c8 -5 12 -12 9 -15 -8 -8 -39 5 -39 16 0 11 11 11
30 -1z m110 -20 c0 -31 -13 -38 -40 -20 -13 9 -11 13 10 30 32 25 30 25 30
-10z m115 -7 c-10 -23 -35 -32 -35 -13 0 5 -11 15 -25 22 -23 12 -21 13 23 13
46 0 47 -1 37 -22z m368 11 c6 -6 -45 -54 -57 -54 -3 0 -6 8 -6 18 0 23 48 51
63 36z m-428 -44 c3 -5 -3 -10 -14 -10 -12 0 -21 5 -21 10 0 6 6 10 14 10 8 0
18 -4 21 -10z m238 -9 c-13 -11 -23 -24 -23 -30 0 -6 -7 -11 -15 -11 -8 0 -15
6 -15 13 0 8 -10 19 -22 25 -20 10 -18 11 14 6 20 -3 45 -1 55 5 28 16 30 12
6 -8z m-98 -52 c-4 -5 -14 -13 -25 -19 -15 -8 -18 -6 -15 8 2 9 4 17 4 17 12
6 40 1 36 -6z"/>
</g>
</svg>
